<?xml version="1.0" standalone="no"?>
<!DOCTYPE svg PUBLIC "-//W3C//DTD SVG 20010904//EN"
 "http://www.w3.org/TR/2001/REC-SVG-20010904/DTD/svg10.dtd">
<svg version="1.0" xmlns="http://www.w3.org/2000/svg"
 width="512.000000pt" height="512.000000pt" viewBox="0 0 512.000000 512.000000"
 preserveAspectRatio="xMidYMid meet">
<metadata>
Created by potrace 1.11, written by Peter Selinger 2001-2013
</metadata>
<g transform="translate(0.000000,512.000000) scale(0.100000,-0.100000)"
fill="#000000" stroke="none">
<path d="M899 5026 c-2 -2 -24 -6 -49 -9 -146 -18 -344 -127 -459 -252 -97
-106 -163 -238 -197 -390 -16 -72 -17 -144 -17 -700 0 -341 3 -645 6 -675 27
-270 207 -520 452 -630 85 -39 100 -44 200 -66 17 -3 190 -7 386 -8 388 -3
447 3 577 56 295 121 491 406 494 718 0 54 -4 76 -22 104 -28 47 -69 75 -122
84 -58 11 -102 0 -146 -35 -40 -33 -56 -74 -66 -171 -19 -187 -154 -341 -346
-393 -47 -12 -614 -18 -675 -6 -192 36 -340 180 -374 362 -18 95 -14 1258 4
1317 48 162 161 279 311 324 51 16 101 18 384 19 318 0 326 -1 390 -24 82 -30
124 -57 181 -115 78 -79 121 -181 133 -316 8 -92 52 -151 131 -177 73 -24 163
16 202 90 9 19 16 56 16 92 -1 312 -187 598 -476 730 -144 65 -165 68 -558 72
-195 2 -357 2 -360 -1z"/>
<path d="M3103 5011 c-26 -12 -52 -35 -70 -62 l-28 -43 0 -1250 c0 -1172 1
-1253 17 -1283 54 -97 183 -122 263 -51 39 33 41 41 21 79 -7 14 -17 43 -21
65 -5 21 -10 46 -12 54 -5 21 -4 151 1 175 12 60 31 115 54 160 25 50 25 50
26 330 2 306 3 315 60 335 17 6 137 10 285 10 l256 0 50 41 c265 219 658 157
846 -134 63 -98 84 -174 84 -307 0 -70 -6 -131 -14 -155 -26 -77 -71 -160
-113 -209 l-42 -48 1 -142 c0 -154 9 -196 49 -240 75 -80 196 -73 268 17 l31
39 0 1262 0 1263 -28 36 c-84 111 -239 96 -301 -27 -17 -35 -19 -70 -20 -509
-1 -260 -6 -480 -10 -489 -20 -45 -35 -46 -696 -45 -344 0 -636 4 -650 9 -55
18 -54 14 -55 529 l-1 476 -27 45 c-47 80 -138 108 -224 69z"/>
<path d="M4275 3516 c-97 -24 -167 -72 -226 -155 -48 -66 -69 -132 -75 -230
-4 -81 -21 -118 -57 -125 -12 -3 -56 -7 -97 -9 -265 -17 -437 -269 -353 -518
53 -159 185 -260 356 -272 123 -9 152 -57 102 -171 -23 -53 -39 -115 -39 -161
0 -20 6 -20 439 -20 l440 0 -2 40 c-1 22 -11 65 -22 96 -63 184 -212 289 -426
302 -60 4 -72 8 -92 31 -27 32 -29 58 -7 117 8 24 17 87 19 140 4 97 15 132
45 145 8 3 47 8 85 10 177 11 288 82 361 231 73 150 43 323 -77 443 -101 101
-239 140 -374 106z"/>
<path d="M3049 1662 c-34 -17 -49 -53 -48 -117 1 -61 20 -110 48 -124 14 -8
310 -11 1020 -9 l1000 3 23 22 c17 18 23 37 26 88 5 73 -9 119 -42 138 -33 18
-1989 17 -2027 -1z"/>
<path d="M339 1319 c-39 -8 -57 -26 -68 -66 -12 -40 16 -89 56 -100 15 -4 193
-7 395 -7 l367 0 25 23 c45 43 42 104 -9 137 -22 15 -66 17 -380 18 -195 0
-368 -2 -386 -5z"/>
<path d="M1669 1320 c-100 -20 -106 -148 -9 -168 28 -6 617 -8 731 -3 38 2 79
46 79 86 0 40 -41 85 -79 86 -128 3 -703 3 -722 -1z"/>
<path d="M3179 1208 c-1 -36 -1 -204 0 -223 1 -13 27 -15 176 -15 l175 0 0
130 c0 97 -3 130 -12 131 -7 1 -86 2 -176 3 l-162 1 -1 -27z"/>
<path d="M3709 1205 c0 -16 -1 -75 -2 -130 l-1 -100 354 0 354 0 0 128 c1 70
-1 127 -4 128 -3 1 -161 2 -353 3 l-347 1 -1 -30z"/>
<path d="M4607 1232 c-15 -3 -17 -20 -17 -133 l0 -129 174 0 c130 0 175 3 178
13 3 10 2 230 -1 247 -1 5 -307 7 -334 2z"/>
<path d="M440 881 l0 -89 -191 0 c-184 0 -191 -1 -215 -22 -32 -31 -38 -53
-24 -94 17 -54 40 -60 243 -61 100 -1 184 -3 187 -3 3 -1 4 -40 2 -87 l-3 -85
265 0 266 0 0 88 0 88 388 -2 c213 -1 392 -2 397 -3 6 0 10 -35 10 -83 l1 -83
265 -3 265 -2 -1 87 0 88 440 0 440 0 3 -42 3 -43 62 0 c310 -2 721 1 725 4 6
7 6 246 -1 252 -3 3 -379 6 -836 6 -621 0 -831 3 -832 11 -1 7 -3 41 -4 77 -1
36 -3 71 -4 78 -1 9 -60 12 -261 12 -201 0 -260 -3 -261 -12 -1 -7 -2 -47 -3
-88 l-1 -75 -397 -2 -398 -2 0 90 0 89 -265 0 -265 0 0 -89z"/>
<path d="M4178 792 l-28 -3 0 -130 0 -129 173 0 c94 0 272 -2 395 -3 122 -1
222 0 223 3 6 28 2 253 -4 257 -9 5 -715 10 -759 5z"/>
<path d="M3180 318 c-1 -18 -2 -77 -3 -131 -2 -80 1 -97 13 -98 50 -3 308 -4
323 0 15 3 17 18 17 132 l0 129 -175 0 -175 0 0 -32z"/>
<path d="M3709 318 c-1 -48 -1 -157 0 -198 l1 -35 346 1 c239 0 348 4 352 11
6 9 8 211 3 246 -1 4 -158 7 -351 7 l-350 0 -1 -32z"/>
<path d="M4590 218 l0 -133 172 0 c95 0 175 3 178 7 3 3 5 62 5 130 l-1 123
-177 3 -177 2 0 -132z"/>
</g>
</svg>
