<?xml version="1.0" encoding="UTF-8"?>
<svg width="1104.9735" height="1104.9735" xmlns="http://www.w3.org/2000/svg" xmlns:svg="http://www.w3.org/2000/svg">
 <title>bumpy circle open wavy</title>
 <metadata id="metadata3237">image/svg+xml</metadata>
 <g>
  <title>Layer 1</title>
  <g id="layer1" opacity="0.5">
   <path id="svg_2" stroke-linecap="square" fill="#8ae6ff" stroke-width="0" stroke-miterlimit="4" d="m499.79208,11.10779c-15.14007,0.1532 -30.36804,5.42294 -41.5625,15.28125c-4.8247,4.24884 -8.87658,9.14361 -12.15625,14.46875c-13.315,2.81241 -26.44604,6.12231 -39.375,9.90625c-5.41699,-3.16876 -11.33282,-5.5315 -17.65622,-6.9375c-24.52368,-5.45288 -52.10119,5.62701 -66.3125,26.34375c-3.6781,5.36175 -6.39453,11.16015 -8.1875,17.21875c-12.0642,6.15527 -23.8623,12.75769 -35.375,19.78125c-6.10009,-1.6471 -12.47387,-2.38367 -18.96875,-2.0625c-25.09198,1.24081 -48.86883,18.90869 -57.15625,42.625c-2.13928,6.12193 -3.24609,12.42648 -3.40625,18.71875c-10.04016,9.04097 -19.76495,18.44932 -29.09375,28.21875c-6.32672,-0.00901 -12.68621,0.93931 -18.875,2.9375c-23.90734,7.71898 -42.40667,30.85136 -44.25,55.90625c-0.4746,6.45038 0.09748,12.8092 1.5625,18.90625c-7.38018,11.33304 -14.3222,22.96908 -20.84375,34.875c-6.03997,1.59091 -11.90741,4.03457 -17.375,7.40625c-21.38366,13.18649 -33.22009,41.13031 -28.375,65.78125c1.24445,6.33188 3.4394,12.27862 6.4375,17.75c-4.16912,12.82239 -7.85742,25.86624 -11.0625,39.09375c-5.43939,3.14837 -10.42852,7.07886 -14.8125,11.8125c-17.07061,18.43194 -21.10748,47.97119 -10.31256,70.65625c2.79932,5.88263 6.48328,11.13086 10.84381,15.71875c-0.48187,9.30218 -0.75,18.67169 -0.75,28.09375c0,4.17041 0.06116,8.32116 0.15625,12.46875c-4.42913,4.38818 -8.26532,9.44549 -11.31256,15.09375c-11.92822,22.11017 -8.35345,52.36493 8.25006,71.21875c4.24878,4.82471 9.14356,8.87659 14.46875,12.15625c2.81238,13.315 6.12232,26.44598 9.90625,39.375c-3.16882,5.41699 -5.53149,11.36407 -6.9375,17.6875c-5.45294,24.52362 5.62702,52.10119 26.34375,66.3125c5.36237,3.67853 11.15937,6.39447 17.21875,8.1875c6.15101,12.05432 12.76325,23.84002 19.78125,35.34375c-1.64709,6.10004 -2.38372,12.47381 -2.0625,18.96875c1.24079,25.09198 18.9087,48.86883 42.625,57.15625c6.12189,2.13922 12.42646,3.24609 18.71875,3.40625c9.04096,10.04016 18.44928,19.76489 28.21875,29.09375c-0.01019,6.32959 0.93836,12.68329 2.9375,18.875c7.71894,23.90741 30.85132,42.40674 55.90625,44.25006c6.45099,0.47461 12.8086,-0.09699 18.90625,-1.56262c11.32544,7.3753 22.94617,14.32599 34.84375,20.84381c1.59046,6.05298 4.05896,11.89624 7.4375,17.375c13.18641,21.38367 41.13025,33.21997 65.78125,28.375c6.33179,-1.24451 12.27857,-3.43945 17.75,-6.4375c12.82236,4.16907 25.86618,7.85742 39.09372,11.0625c3.14838,5.43933 7.07886,10.45971 11.8125,14.84375c18.43195,17.07068 47.97119,21.07617 70.65628,10.28125c5.88257,-2.79932 11.13086,-6.48328 15.71875,-10.84375c9.30213,0.48181 18.67164,0.75 28.09375,0.75c4.15992,0 8.30018,-0.06201 12.4375,-0.15625c4.39466,4.44116 9.4646,8.25879 15.125,11.3125c22.11011,11.92822 52.36487,8.35351 71.21875,-8.25c4.8302,-4.25366 8.90589,-9.13648 12.1875,-14.46875c13.30469,-2.81104 26.42444,-6.12512 39.34375,-9.90625c5.417,3.1687 11.36402,5.53149 17.6875,6.9375c24.52356,5.45288 52.1012,-5.59583 66.3125,-26.3125c3.68018,-5.36475 6.39454,-11.18762 8.1875,-17.25c12.06092,-6.15442 23.86524,-12.72766 35.375,-19.75c6.08887,1.64007 12.45569,2.35181 18.9375,2.03131c25.09192,-1.24091 48.86878,-18.90869 57.15625,-42.62506c2.13916,-6.12195 3.2461,-12.42652 3.40625,-18.71875c10.05066,-9.05054 19.78711,-18.4383 29.125,-28.21875c6.31922,0.00702 12.66224,-0.94165 18.84375,-2.9375c23.90735,-7.719 42.40662,-30.85144 44.25,-55.90625c0.47461,-6.45105 -0.09692,-12.80866 -1.56262,-18.90625c7.37537,-11.32544 14.32605,-22.94623 20.84387,-34.84375c6.05298,-1.59058 11.89625,-4.05902 17.375,-7.4375c21.38367,-13.18646 33.21998,-41.13031 28.375,-65.78125c-1.2445,-6.33191 -3.43945,-12.27863 -6.4375,-17.75c4.16602,-12.81281 7.85901,-25.84516 11.0625,-39.0625c5.44056,-3.14868 10.45899,-7.10925 14.84375,-11.84375c17.07056,-18.43201 21.07618,-47.93994 10.28125,-70.625c-2.79931,-5.88263 -6.48327,-11.16211 -10.84375,-15.75c0.69459,-14.48322 0.8938,-27.22833 0.59375,-40.53125c4.44117,-4.39472 8.25879,-9.46466 11.3125,-15.125c11.92835,-22.11017 8.35352,-52.36493 -8.25,-71.21875c-4.25366,-4.83026 -9.13647,-8.90589 -14.46875,-12.1875c-2.81103,-13.30475 -6.12512,-26.42444 -9.90625,-39.34375c3.16871,-5.41699 5.5315,-11.33283 6.9375,-17.65625c5.45289,-24.52365 -5.59582,-52.1012 -26.3125,-66.3125c-5.36425,-3.67972 -11.18847,-6.3945 -17.25,-8.1875c-6.15478,-12.06284 -12.72717,-23.86347 -19.75,-35.375c1.64551,-6.0976 2.3523,-12.47672 2.03125,-18.96875c-1.24084,-25.09194 -18.90869,-48.86885 -42.625,-57.15625c-6.12194,-2.13925 -12.42651,-3.2461 -18.71875,-3.40625c-9.05053,-10.05075 -18.43835,-19.78708 -28.21875,-29.125c0.00599,-6.31644 -0.94262,-12.66503 -2.9375,-18.84375c-7.71899,-23.90738 -30.85144,-42.40665 -55.90625,-44.25c-6.45043,-0.47458 -12.8092,0.0975 -18.90625,1.5625c-11.33313,-7.38019 -22.96911,-14.32218 -34.875,-20.84375c-1.59094,-6.03995 -4.03466,-11.90738 -7.40625,-17.375c-13.18652,-21.38367 -41.13037,-33.22003 -65.78125,-28.375c-6.3319,1.24451 -12.27868,3.43939 -17.75,6.4375c-12.81286,-4.16602 -25.84521,-7.85904 -39.0625,-11.0625c-3.14868,-5.44046 -7.10925,-10.42774 -11.84375,-14.8125c-18.432,-17.07059 -47.93994,-21.10742 -70.625,-10.3125c-5.88269,2.79931 -11.1621,6.48327 -15.75,10.84375c-9.30127,-0.48172 -18.64135,-0.75 -28.0625,-0.75c-4.17248,0 -8.35046,0.06109 -12.5,0.15625c-4.38818,-4.42914 -9.44555,-8.26529 -15.09375,-11.3125c-8.9823,-4.84586 -19.29736,-7.13608 -29.65628,-7.03125z"/>
  </g>
 </g>
</svg>